<svg width="800" height="500" viewBox="0 0 800 500" xmlns="http://www.w3.org/2000/svg">
  <defs>
    <linearGradient id="g3" x1="0" y1="0" x2="1" y2="1">
      <stop offset="0%" stop-color="#FE8C00" stop-opacity="0.16"/>
      <stop offset="100%" stop-color="#0a0a0a" stop-opacity="0.02"/>
    </linearGradient>
  </defs>
  <rect width="800" height="500" fill="#F7F7F8"/>
  <rect width="800" height="500" fill="url(#g3)"/>
  <g opacity="0.9">
    <rect x="260" y="110" width="280" height="60" rx="16" fill="#0a0a0a" fill-opacity="0.04" stroke="#FE8C00" stroke-opacity="0.35" stroke-width="2"/>
    <circle cx="290" cy="140" r="14" fill="#FE8C00" fill-opacity="0.5"/>
    <rect x="316" y="130" width="180" height="8" rx="4" fill="#0a0a0a" fill-opacity="0.15"/>
    <rect x="316" y="146" width="120" height="8" rx="4" fill="#0a0a0a" fill-opacity="0.1"/>

    <rect x="260" y="185" width="280" height="90" rx="16" fill="#0a0a0a" fill-opacity="0.04" stroke="#FE8C00" stroke-opacity="0.35" stroke-width="2"/>
    <circle cx="290" cy="215" r="14" fill="#FE8C00" fill-opacity="0.5"/>
    <rect x="316" y="205" width="180" height="8" rx="4" fill="#0a0a0a" fill-opacity="0.15"/>
    <rect x="280" y="240" width="240" height="20" rx="10" fill="#FE8C00" fill-opacity="0.15"/>

    <rect x="260" y="290" width="280" height="60" rx="16" fill="#0a0a0a" fill-opacity="0.04" stroke="#FE8C00" stroke-opacity="0.35" stroke-width="2"/>
    <circle cx="290" cy="320" r="14" fill="#FE8C00" fill-opacity="0.5"/>
    <rect x="316" y="310" width="180" height="8" rx="4" fill="#0a0a0a" fill-opacity="0.15"/>
    <rect x="316" y="326" width="120" height="8" rx="4" fill="#0a0a0a" fill-opacity="0.1"/>
  </g>
  <text x="400" y="440" text-anchor="middle" font-family="Arial, sans-serif" font-size="22" fill="#0a0a0a" opacity="0.55">Echo — social feed</text>
</svg>
